<svg width="20" height="24" viewBox="0 0 20 24" fill="none" xmlns="http://www.w3.org/2000/svg">
<path d="M10.0005 20.7461C10.2251 20.7461 10.4073 20.5642 10.4073 20.3393V6.91557C10.4073 6.69062 10.2251 6.50879 10.0005 6.50879C9.77599 6.50879 9.59375 6.69062 9.59375 6.91557V20.3393C9.59375 20.5642 9.77599 20.7461 10.0005 20.7461Z" fill="#C30E0E"/>
<path d="M5.93217 20.7461C6.15671 20.7461 6.33895 20.5642 6.33895 20.3393V6.91557C6.33895 6.69062 6.15671 6.50879 5.93217 6.50879C5.70763 6.50879 5.52539 6.69062 5.52539 6.91557V20.3393C5.52539 20.5642 5.70763 20.7461 5.93217 20.7461Z" fill="#C30E0E"/>
<path d="M14.0679 20.7461C14.2925 20.7461 14.4747 20.5642 14.4747 20.3393V6.91557C14.4747 6.69062 14.2925 6.50879 14.0679 6.50879C13.8434 6.50879 13.6611 6.69062 13.6611 6.91557V20.3393C13.6611 20.5642 13.8434 20.7461 14.0679 20.7461Z" fill="#C30E0E"/>
<path d="M19.3559 2.44068H13.6431C13.5984 1.9322 13.4418 1.07471 12.9056 0.524339C12.5664 0.176542 12.136 0 11.6267 0H7.55934C7.05005 0 6.61968 0.176542 6.28042 0.524339C5.74429 1.07471 5.58768 1.9322 5.54293 2.44068H0.644084C0.419542 2.44068 0.237305 2.62251 0.237305 2.84746C0.237305 3.07241 0.419542 3.25424 0.644084 3.25424H1.47432L2.2533 21.9746C2.26836 22.6751 2.70442 24 4.24978 24H15.7503C17.2956 24 17.7317 22.6751 17.7463 21.9832L18.5257 3.25424H19.3559C19.5805 3.25424 19.7627 3.07241 19.7627 2.84746C19.7627 2.62251 19.5805 2.44068 19.3559 2.44068ZM6.86456 1.09058C7.0468 0.904271 7.27419 0.813559 7.55934 0.813559H11.6267C11.9119 0.813559 12.1393 0.904271 12.3215 1.09058C12.649 1.42536 12.7804 2.01437 12.8259 2.44068H6.36056C6.40612 2.01437 6.53751 1.42536 6.86456 1.09058ZM16.9332 21.9576C16.9307 22.0833 16.8746 23.1864 15.7503 23.1864H4.24978C3.13764 23.1864 3.07093 22.0812 3.06646 21.949L2.28829 3.25424H17.7113L16.9332 21.9576Z" fill="#C30E0E"/>
</svg>
