<svg width="55" height="55" viewBox="0 0 55 55" fill="none" xmlns="http://www.w3.org/2000/svg">
<path fill-rule="evenodd" clip-rule="evenodd" d="M23.2143 18.8013C23.2143 16.7105 24.9092 15.0156 27 15.0156C29.0908 15.0156 30.7857 16.7105 30.7857 18.8013V23.0264H23.2143V18.8013ZM22.2143 23.9264V28.8013H23.2143V23.9264H30.7857V28.8013H31.7857V23.9264H36C36.0552 23.9264 36.1 23.9711 36.1 24.0264V40.7965C36.1 40.8517 36.0552 40.8965 36 40.8965H18C17.9448 40.8965 17.9 40.8517 17.9 40.7965V24.0264C17.9 23.9711 17.9448 23.9264 18 23.9264H22.2143ZM22.2143 23.0264V18.8013C22.2143 16.1583 24.3569 14.0156 27 14.0156C29.6431 14.0156 31.7857 16.1583 31.7857 18.8013V23.0264H36C36.5523 23.0264 37 23.4741 37 24.0264V40.7965C37 41.3488 36.5523 41.7965 36 41.7965H18C17.4477 41.7965 17 41.3488 17 40.7965V24.0264C17 23.4741 17.4477 23.0264 18 23.0264H22.2143Z" fill="black"/>
<circle cx="18.5" cy="20.5" r="7.5" fill="black"/>
<path d="M18.5 17V20.5M18.5 24V20.5M18.5 20.5H22H15" stroke="white"/>
</svg>
