<svg width="23" height="25" viewBox="0 0 23 25" fill="none" xmlns="http://www.w3.org/2000/svg">
<path fill-rule="evenodd" clip-rule="evenodd" d="M10.5876 4.99508C10.5876 3.23308 12.016 1.80469 13.778 1.80469C15.54 1.80469 16.9684 3.23308 16.9684 4.99508V8.63322H10.5876V4.99508ZM9.58758 9.53322V13.606H10.5876V9.53322H16.9684V13.606H17.9684V9.53322H21.3888C21.4441 9.53322 21.4888 9.57799 21.4888 9.63322V23.796C21.4888 23.8513 21.4441 23.896 21.3888 23.896H6.16699C6.11176 23.896 6.06699 23.8513 6.06699 23.796V9.63322C6.06699 9.57799 6.11176 9.53322 6.16699 9.53322H9.58758ZM9.58758 8.63322V4.99508C9.58758 2.68079 11.4637 0.804688 13.778 0.804688C16.0923 0.804688 17.9684 2.68079 17.9684 4.99508V8.63322H21.3888C21.9411 8.63322 22.3888 9.08093 22.3888 9.63322V23.796C22.3888 24.3483 21.9411 24.796 21.3888 24.796H6.16699C5.61471 24.796 5.16699 24.3483 5.16699 23.796V9.63322C5.16699 9.08093 5.61471 8.63322 6.16699 8.63322H9.58758Z" fill="#C30E0E"/>
<circle cx="6.45819" cy="6.45819" r="6.45819" fill="black"/>
<path d="M6.45816 3.44434V6.45816M6.45816 9.47198V6.45816M6.45816 6.45816H9.47198H3.44434" stroke="white"/>
</svg>
