<svg width="20" height="20" viewBox="0 0 20 20" fill="none" xmlns="http://www.w3.org/2000/svg">
<path d="M18.75 5.61219H14.795C15.0788 5.41844 15.3225 5.22594 15.4925 5.05344C16.5 4.03969 16.5 2.38969 15.4925 1.37594C14.5138 0.390938 12.8063 0.389688 11.8263 1.37594C11.285 1.91969 9.84625 4.13344 10.045 5.61219H9.955C10.1525 4.13344 8.715 1.91969 8.17375 1.37594C7.19375 0.389688 5.48625 0.390938 4.5075 1.37594C3.5 2.38969 3.5 4.03969 4.50625 5.05344C4.6775 5.22594 4.92125 5.41844 5.205 5.61219H1.25C0.56125 5.61219 0 6.17344 0 6.86219V9.98719C0 10.3322 0.28 10.6122 0.625 10.6122H1.25V18.1122C1.25 18.8009 1.81125 19.3622 2.5 19.3622H17.5C18.1887 19.3622 18.75 18.8009 18.75 18.1122V10.6122H19.375C19.72 10.6122 20 10.3322 20 9.98719V6.86219C20 6.17344 19.4387 5.61219 18.75 5.61219ZM5.39375 2.25719C5.6475 2.00219 5.98375 1.86219 6.34125 1.86219C6.6975 1.86219 7.03375 2.00219 7.2875 2.25719C8.13 3.10469 8.9675 5.26969 8.67625 5.57094C8.67625 5.57094 8.62375 5.61219 8.445 5.61219C7.58125 5.61219 5.9325 4.71469 5.39375 4.17219C4.87 3.64469 4.87 2.78469 5.39375 2.25719ZM9.375 18.1122H2.5V10.6122H9.375V18.1122ZM9.375 9.36219H1.25V6.86219H8.445H9.375V9.36219ZM12.7125 2.25719C13.22 1.74844 14.1 1.74969 14.6063 2.25719C15.13 2.78469 15.13 3.64469 14.6063 4.17219C14.0675 4.71469 12.4188 5.61219 11.555 5.61219C11.3763 5.61219 11.3237 5.57219 11.3225 5.57094C11.0325 5.26969 11.87 3.10469 12.7125 2.25719ZM17.5 18.1122H10.625V10.6122H17.5V18.1122ZM18.75 9.36219H10.625V6.86219H11.555H18.75V9.36219Z" fill="#ffffff"/>
</svg>
