<svg width="38" height="24" viewBox="0 0 38 24" fill="none" xmlns="http://www.w3.org/2000/svg">
<path d="M23.7005 12.2783C23.7005 14.5484 23.2222 16.573 22.2656 18.352C21.309 20.1201 19.9456 21.5007 18.1753 22.4939C16.4051 23.498 14.3764 24 12.0894 24C10.4511 24 8.88426 23.6835 7.38889 23.0505C5.89352 22.4175 4.60706 21.5662 3.52951 20.4966C2.45197 19.427 1.59433 18.1501 0.956597 16.6658C0.318866 15.1814 0 13.6262 0 12C0 10.3738 0.318866 8.81855 0.956597 7.33424C1.59433 5.84993 2.45197 4.57299 3.52951 3.50341C4.60706 2.43383 5.89352 1.58254 7.38889 0.949522C8.88426 0.316507 10.4511 0 12.0894 0C15.2341 0 17.9334 1.04775 20.1875 3.14325L16.9054 6.27012C15.6189 5.03684 14.0136 4.42019 12.0894 4.42019C10.737 4.42019 9.48351 4.75853 8.32899 5.4352C7.18547 6.11187 6.27836 7.03411 5.60764 8.20191C4.93692 9.3588 4.60156 10.6248 4.60156 12C4.60156 13.3752 4.93692 14.6467 5.60764 15.8145C6.27836 16.9714 7.18547 17.8881 8.32899 18.5648C9.48351 19.2415 10.737 19.5798 12.0894 19.5798C13.002 19.5798 13.8377 19.4543 14.5964 19.2033C15.366 18.9523 15.9983 18.6412 16.4931 18.2701C16.9878 17.8881 17.4167 17.457 17.7795 16.9768C18.1534 16.4966 18.4227 16.0437 18.5877 15.618C18.7636 15.1924 18.8845 14.7885 18.9505 14.4066H12.0894V10.281H23.5026C23.6345 10.9686 23.7005 11.6344 23.7005 12.2783ZM38 10.281V13.719H34.5529V17.1405H31.0894V13.719H27.6424V10.281H31.0894V6.85948H34.5529V10.281H38Z" fill="#F30505"/>
</svg>
