<svg width="28" height="18" viewBox="0 0 28 18" fill="none" xmlns="http://www.w3.org/2000/svg">
<path d="M17.4635 9.20873C17.4635 10.9113 17.1111 12.4297 16.4062 13.764C15.7014 15.09 14.6968 16.1255 13.3924 16.8704C12.088 17.6235 10.5932 18 8.90799 18C7.70081 18 6.5463 17.7626 5.44444 17.2879C4.34259 16.8131 3.39468 16.1746 2.60069 15.3724C1.80671 14.5703 1.17477 13.6126 0.704861 12.4993C0.234954 11.3861 0 10.2196 0 9C0 7.78036 0.234954 6.61392 0.704861 5.50068C1.17477 4.38745 1.80671 3.42974 2.60069 2.62756C3.39468 1.82538 4.34259 1.1869 5.44444 0.712141C6.5463 0.23738 7.70081 0 8.90799 0C11.2251 0 13.2141 0.785812 14.875 2.35744L12.4566 4.70259C11.5087 3.77763 10.3258 3.31514 8.90799 3.31514C7.91146 3.31514 6.98785 3.5689 6.13715 4.0764C5.29456 4.5839 4.62616 5.27558 4.13194 6.15143C3.63773 7.0191 3.39062 7.96862 3.39062 9C3.39062 10.0314 3.63773 10.985 4.13194 11.8608C4.62616 12.7285 5.29456 13.4161 6.13715 13.9236C6.98785 14.4311 7.91146 14.6849 8.90799 14.6849C9.58044 14.6849 10.1962 14.5907 10.7552 14.4025C11.3223 14.2142 11.7882 13.9809 12.1528 13.7026C12.5174 13.4161 12.8333 13.0928 13.1007 12.7326C13.3762 12.3724 13.5747 12.0327 13.6962 11.7135C13.8258 11.3943 13.9149 11.0914 13.9635 10.8049H8.90799V7.71078H17.3177C17.4149 8.22647 17.4635 8.72578 17.4635 9.20873ZM28 7.71078V10.2892H25.4601V12.8554H22.908V10.2892H20.3681V7.71078H22.908V5.14461H25.4601V7.71078H28Z" fill="white"/>
</svg>
