<svg width="55" height="55" viewBox="0 0 55 55" fill="none" xmlns="http://www.w3.org/2000/svg">
<path d="M25.7545 22.5313L25.7549 22.5317C25.9958 22.7544 26.3161 23.2094 26.5959 23.6531C26.7305 23.8665 26.8475 24.0638 26.9309 24.208C26.9725 24.2799 27.0056 24.3383 27.0281 24.3784L27.0536 24.4241L27.0599 24.4356L27.0614 24.4383L27.0617 24.4388L27.0617 24.4388L27.0617 24.4389L27.0618 24.4389L27.5003 25.2394L27.9387 24.4388L27.9388 24.4388L27.9388 24.4388L27.9388 24.4387L27.9391 24.4382L27.9406 24.4355L27.9469 24.424L27.9725 24.3782C27.995 24.3381 28.0281 24.2796 28.0697 24.2076C28.153 24.0633 28.2699 23.8658 28.4041 23.6522C28.6828 23.2087 29.0013 22.7535 29.2395 22.5304C30.0629 21.7677 31.1441 21.3184 32.4886 21.3184C33.8757 21.3184 35.126 21.8819 36.0312 22.7871C36.9434 23.6992 37.5 24.9493 37.5 26.3302C37.5 27.4718 36.8659 28.7803 35.9107 30.124C34.9661 31.4528 33.769 32.7335 32.752 33.8182C32.3856 34.2067 32.0451 34.5701 31.7333 34.9197L31.7324 34.9208L27.524 39.6675C27.5238 39.6677 27.5236 39.6678 27.5234 39.668C27.5156 39.6765 27.5081 39.6788 27.5028 39.6791C27.4999 39.6793 27.4978 39.6789 27.4963 39.6784C27.4959 39.6782 27.4952 39.678 27.4942 39.6775C27.4931 39.6768 27.4917 39.6758 27.4898 39.6742L27.4631 39.6502L27.4562 39.6456L23.2672 34.9208L23.2672 34.9208L23.2644 34.9176C23.0661 34.6978 22.8251 34.4392 22.5647 34.1596C22.4576 34.0447 22.3472 33.9263 22.2352 33.8056L22.2334 33.8036C21.216 32.7189 20.0227 31.4438 19.0818 30.1196C18.1309 28.7813 17.5 27.4761 17.5 26.3302C17.5 24.952 18.0626 23.7009 18.9687 22.7872C19.8826 21.8813 21.1337 21.3184 22.5119 21.3184C23.8561 21.3184 24.9298 21.7675 25.7545 22.5313Z" stroke="black"/>
</svg>
