<svg width="23" height="21" viewBox="0 0 23 21" fill="none" xmlns="http://www.w3.org/2000/svg">
<path d="M6.55464 0.411133C8.11106 0.411133 9.38132 0.930798 10.3584 1.82781C10.9858 2.40252 11.4861 3.12648 11.8513 3.96846C12.2165 3.12648 12.7168 2.40202 13.3362 1.82781C14.3128 0.930798 15.5915 0.411133 17.1479 0.411133C18.7679 0.411133 20.2288 1.06418 21.2849 2.11095C22.349 3.16565 22.9999 4.61357 22.9999 6.21174C22.9999 8.95882 19.9666 12.1775 17.8143 14.4525C17.4251 14.8616 17.0679 15.2394 16.7422 15.6014L12.2715 20.5992C12.0649 20.8273 11.7157 20.8511 11.4856 20.6463C11.4616 20.6305 11.4461 20.6151 11.43 20.5992L6.95938 15.6014C6.6657 15.2786 6.28448 14.8774 5.87173 14.4366C3.71945 12.1621 0.702148 8.96676 0.702148 6.21174C0.702148 4.61407 1.36104 3.16565 2.41717 2.11095C3.4813 1.06468 4.94268 0.411133 6.55464 0.411133ZM9.60395 2.63855C8.83349 1.92996 7.81739 1.52087 6.55464 1.52087C5.25236 1.52087 4.06915 2.04798 3.21164 2.89838C2.35413 3.74879 1.82182 4.92101 1.82182 6.21174C1.82182 8.53337 4.66451 11.5403 6.68972 13.6809C7.08695 14.0979 7.46018 14.4917 7.79337 14.8695L11.8513 19.4032L15.9092 14.8695C16.2109 14.5388 16.5921 14.1297 17.0049 13.6968C19.0221 11.5562 21.8808 8.53387 21.8808 6.21174C21.8808 4.92101 21.349 3.74829 20.4989 2.89838C19.6414 2.04847 18.4582 1.52087 17.1479 1.52087C15.8852 1.52087 14.8691 1.92996 14.0986 2.63855C13.2571 3.40962 12.6853 4.55109 12.4071 5.92067C12.3676 6.14083 12.2005 6.32232 11.9624 6.36942C11.6607 6.4324 11.367 6.24348 11.3035 5.93654C11.0253 4.56696 10.4535 3.41805 9.60395 2.63855Z" fill="black"/>
</svg>
