<?xml version="1.0" encoding="UTF-8" standalone="no"?>
<svg
   xmlns:dc="http://purl.org/dc/elements/1.1/"
   xmlns:cc="http://creativecommons.org/ns#"
   xmlns:rdf="http://www.w3.org/1999/02/22-rdf-syntax-ns#"
   xmlns:svg="http://www.w3.org/2000/svg"
   xmlns="http://www.w3.org/2000/svg"
   xmlns:sodipodi="http://sodipodi.sourceforge.net/DTD/sodipodi-0.dtd"
   xmlns:inkscape="http://www.inkscape.org/namespaces/inkscape"
   width="16"
   height="16"
   viewBox="0 0 16 16"
   fill="none"
   version="1.1"
   id="svg4018"
   sodipodi:docname="Vector (4).svg"
   inkscape:version="0.92.3 (2405546, 2018-03-11)">
  <metadata
     id="metadata4024">
    <rdf:RDF>
      <cc:Work
         rdf:about="">
        <dc:format>image/svg+xml</dc:format>
        <dc:type
           rdf:resource="http://purl.org/dc/dcmitype/StillImage" />
        <dc:title></dc:title>
      </cc:Work>
    </rdf:RDF>
  </metadata>
  <defs
     id="defs4022" />
  <sodipodi:namedview
     pagecolor="#ffffff"
     bordercolor="#666666"
     borderopacity="1"
     objecttolerance="10"
     gridtolerance="10"
     guidetolerance="10"
     inkscape:pageopacity="0"
     inkscape:pageshadow="2"
     inkscape:window-width="640"
     inkscape:window-height="480"
     id="namedview4020"
     showgrid="false"
     inkscape:zoom="14.75"
     inkscape:cx="8"
     inkscape:cy="8"
     inkscape:window-x="0"
     inkscape:window-y="0"
     inkscape:window-maximized="0"
     inkscape:current-layer="svg4018" />
  <path
     d="M10.9998 0H4.99989C2.23895 0 0 2.23895 0 4.99989V10.9998C0 13.7607 2.23895 15.9996 4.99989 15.9996H10.9998C13.7607 15.9996 15.9996 13.7607 15.9996 10.9998V4.99989C15.9996 2.23895 13.7607 0 10.9998 0ZM14.4997 10.9998C14.4997 12.9297 12.9297 14.4997 10.9998 14.4997H4.99989C3.06993 14.4997 1.49997 12.9297 1.49997 10.9998V4.99989C1.49997 3.06993 3.06993 1.49997 4.99989 1.49997H10.9998C12.9297 1.49997 14.4997 3.06993 14.4997 4.99989V10.9998Z"
     fill="#000000"
     id="path4016" />
  <path
     inkscape:connector-curvature="0"
     style="fill:#000000"
     d="m 7.7966102,4.0678866 c -2.20895,0 -3.99991,1.79096 -3.99991,3.99991 0,2.2089504 1.79096,3.9999104 3.99991,3.9999104 2.2089498,0 3.9999098,-1.79096 3.9999098,-3.9999104 0,-2.20895 -1.79096,-3.99991 -3.9999098,-3.99991 z m 0,6.4998604 c -1.37797,0 -2.49994,-1.1219804 -2.49994,-2.4999504 0,-1.37897 1.12197,-2.49994 2.49994,-2.49994 1.37797,0 2.4999498,1.12097 2.4999498,2.49994 0,1.37797 -1.1219798,2.4999504 -2.4999498,2.4999504 z"
     id="path4036" />
  <path
     inkscape:connector-curvature="0"
     style="fill:#000000"
     d="m 12.33898,4.5329893 c 0.29436,0 0.53299,-0.238628 0.53299,-0.53299 0,-0.294361 -0.23863,-0.532988 -0.53299,-0.532988 -0.29436,0 -0.532985,0.238627 -0.532985,0.532988 0,0.294362 0.238625,0.53299 0.532985,0.53299 z"
     id="path4071" />
</svg>
