<svg width="51" height="44" viewBox="0 0 51 44" fill="none" xmlns="http://www.w3.org/2000/svg">
<path opacity="0.1" d="M39.7508 18C37.2508 18 35.1508 17.2 33.4508 15.6C31.6508 14.1 30.7508 12.05 30.7508 9.45C30.7508 6.55 31.6008 4.25 33.3008 2.55C34.9008 0.849997 37.0508 -4.9949e-06 39.7508 -4.75886e-06C43.1508 -4.46163e-06 45.8008 1.3 47.7008 3.9C49.6008 6.6 50.5508 10.4 50.5508 15.3C50.5508 27.7 44.7008 37.1 33.0008 43.5L29.1008 36.6C33.2008 34.1 36.2508 31.4 38.2508 28.5C40.1508 25.6 41.1008 22.05 41.1008 17.85C40.8008 17.95 40.3508 18 39.7508 18ZM10.6508 18C8.15078 18 6.05078 17.2 4.35078 15.6C2.55078 14.1 1.65078 12.05 1.65078 9.45C1.65078 6.54999 2.50078 4.25 4.20078 2.55C5.80078 0.849995 7.95078 -7.53891e-06 10.6508 -7.30287e-06C14.0508 -7.00563e-06 16.7008 1.3 18.6008 3.9C20.5008 6.6 21.4508 10.4 21.4508 15.3C21.4508 27.7 15.6008 37.1 3.90078 43.5L0.000782616 36.6C4.10078 34.1 7.15078 31.4 9.15078 28.5C11.0508 25.6 12.0008 22.05 12.0008 17.85C11.7008 17.95 11.2508 18 10.6508 18Z" fill="black"/>
</svg>
