<svg width="17" height="17" viewBox="0 0 17 17" fill="none" xmlns="http://www.w3.org/2000/svg">
<path d="M7.61841 16.1182C3.41747 16.1182 0 12.7007 0 8.49975C0 4.29881 3.41747 0.881348 7.61841 0.881348C11.8193 0.881348 15.2368 4.2993 15.2368 8.49975C15.2368 8.74014 15.042 8.9354 14.8012 8.9354C14.5608 8.9354 14.3655 8.74063 14.3655 8.49975C14.3655 4.7791 11.3386 1.75166 7.61792 1.75166C3.89677 1.75166 0.86982 4.7791 0.86982 8.49975C0.86982 12.2204 3.89677 15.2474 7.61792 15.2474C9.99827 15.2474 12.228 13.9713 13.4373 11.9177C13.5595 11.7102 13.8264 11.642 14.0334 11.7637C14.2404 11.8853 14.3091 12.1522 14.1879 12.3597C12.8236 14.6778 10.3059 16.1182 7.61841 16.1182Z" fill="#999999"/>
<path d="M14.8012 8.9352C14.7261 8.9352 14.6496 8.91558 14.5804 8.87486L11.8522 7.26375C11.6452 7.1416 11.5765 6.87471 11.6987 6.66768C11.8213 6.46065 12.0882 6.39197 12.2952 6.51462L14.6756 7.92017L16.2077 5.72575C16.3455 5.52853 16.6168 5.48045 16.8136 5.61782C17.0108 5.75518 17.0589 6.02648 16.9215 6.2237L15.1583 8.74829C15.0739 8.86946 14.939 8.9352 14.8012 8.9352Z" fill="#999999"/>
</svg>
