<svg width="22" height="27" viewBox="0 0 22 27" fill="none" xmlns="http://www.w3.org/2000/svg">
<path d="M11.7474 0C4.59102 0 0.785156 4.61877 0.785156 9.65504C0.785156 11.9907 2.08098 14.9033 4.15527 15.8271C4.47025 15.9701 4.64161 15.9093 4.71178 15.6151C4.7738 15.3915 5.04635 14.3149 5.17854 13.807C5.21934 13.6443 5.19813 13.5029 5.06756 13.3501C4.37885 12.5479 3.83213 11.0867 3.83213 9.71585C3.83213 6.20329 6.60492 2.79263 11.3231 2.79263C15.4031 2.79263 18.2575 5.46198 18.2575 9.28028C18.2575 13.595 15.9906 16.5799 13.0449 16.5799C11.4145 16.5799 10.2003 15.2913 10.5854 13.6969C11.0505 11.7984 11.9628 9.75695 11.9628 8.38775C11.9628 7.15992 11.2741 6.14412 9.86732 6.14412C8.20756 6.14412 6.86115 7.79931 6.86115 10.0216C6.86115 11.4335 7.35728 12.3869 7.35728 12.3869C7.35728 12.3869 5.71547 19.0668 5.41029 20.3144C4.89457 22.4265 5.48046 25.847 5.53106 26.1413C5.56206 26.304 5.74322 26.3549 5.8444 26.2218C6.00597 26.0081 7.9905 23.1563 8.54702 21.0951C8.74939 20.344 9.58009 17.2982 9.58009 17.2982C10.1268 18.2926 11.705 19.126 13.3859 19.126C18.3864 19.126 21.9997 14.6995 21.9997 9.20631C21.9818 3.93993 17.5068 0 11.7474 0Z" fill="#bd081c"/>
</svg>
