<svg width="16" height="19" viewBox="0 0 16 19" fill="none" xmlns="http://www.w3.org/2000/svg">
<mask id="path-1-outside-1" maskUnits="userSpaceOnUse" x="0" y="0" width="16" height="19" fill="black">
<rect fill="white" width="16" height="19"/>
<path fill-rule="evenodd" clip-rule="evenodd" d="M4.83555 11L3.94894 9.64533C3.34355 8.72035 2.05404 8.38288 1.06767 8.88996L1.2975 8.77181C1.05272 8.89765 0.935343 9.21139 1.03613 9.47215L2.2634 12.6474C2.45796 13.1508 2.95486 13.8627 3.36661 14.2203C3.36661 14.2203 5.83555 16.2639 5.83555 17.03V18H9.83555L10.8355 16L11.8355 18H12.8355V17.03C12.8355 16.2639 14.3444 13.8507 14.3444 13.8507C14.6221 13.3816 14.8536 12.5552 14.8536 12.0066V7.9718C14.8355 7.0785 14.0762 6.35454 13.1393 6.35454C12.6705 6.35454 12.2909 6.71652 12.2909 7.16341V7.48657C12.2909 6.59327 11.5315 5.86931 10.5946 5.86931C10.1258 5.86931 9.74618 6.23129 9.74618 6.67819V7.00135C9.74618 6.10804 8.98685 5.38408 8.04989 5.38408C7.58116 5.38408 7.2015 5.74606 7.2015 6.19296V6.51612C7.2015 6.37256 7.18615 6.25843 7.15651 6.16799L6.89773 2.00121C6.86274 1.43776 6.38783 1 5.83555 1C5.27941 1 4.83555 1.44763 4.83555 1.99981V6V11ZM11.8536 10H12.8536V14H11.8536V10ZM9.85364 10H10.8536V14H9.85364V10ZM7.85364 10H8.85364V14H7.85364V10Z"/>
</mask>
<path fill-rule="evenodd" clip-rule="evenodd" d="M4.83555 11L3.94894 9.64533C3.34355 8.72035 2.05404 8.38288 1.06767 8.88996L1.2975 8.77181C1.05272 8.89765 0.935343 9.21139 1.03613 9.47215L2.2634 12.6474C2.45796 13.1508 2.95486 13.8627 3.36661 14.2203C3.36661 14.2203 5.83555 16.2639 5.83555 17.03V18H9.83555L10.8355 16L11.8355 18H12.8355V17.03C12.8355 16.2639 14.3444 13.8507 14.3444 13.8507C14.6221 13.3816 14.8536 12.5552 14.8536 12.0066V7.9718C14.8355 7.0785 14.0762 6.35454 13.1393 6.35454C12.6705 6.35454 12.2909 6.71652 12.2909 7.16341V7.48657C12.2909 6.59327 11.5315 5.86931 10.5946 5.86931C10.1258 5.86931 9.74618 6.23129 9.74618 6.67819V7.00135C9.74618 6.10804 8.98685 5.38408 8.04989 5.38408C7.58116 5.38408 7.2015 5.74606 7.2015 6.19296V6.51612C7.2015 6.37256 7.18615 6.25843 7.15651 6.16799L6.89773 2.00121C6.86274 1.43776 6.38783 1 5.83555 1C5.27941 1 4.83555 1.44763 4.83555 1.99981V6V11ZM11.8536 10H12.8536V14H11.8536V10ZM9.85364 10H10.8536V14H9.85364V10ZM7.85364 10H8.85364V14H7.85364V10Z" fill="white"/>
<path d="M4.83555 11L3.99882 11.5476L5.83555 14.354V11H4.83555ZM3.94894 9.64533L4.78566 9.0977L3.94894 9.64533ZM1.03613 9.47215L0.103376 9.83266L1.03613 9.47215ZM2.2634 12.6474L3.19615 12.2869L2.2634 12.6474ZM3.36661 14.2203L2.71088 14.9753L2.71984 14.9831L2.72899 14.9907L3.36661 14.2203ZM5.83555 18H4.83555V19H5.83555V18ZM9.83555 18V19H10.4536L10.73 18.4472L9.83555 18ZM10.8355 16L11.73 15.5528L10.8355 13.7639L9.94112 15.5528L10.8355 16ZM11.8355 18L10.9411 18.4472L11.2175 19H11.8355V18ZM12.8355 18V19H13.8355V18H12.8355ZM14.3444 13.8507L15.1923 14.3808L15.1987 14.3706L15.2049 14.3602L14.3444 13.8507ZM14.8536 7.9718H15.8536V7.96168L15.8534 7.95156L14.8536 7.9718ZM7.15651 6.16799L6.15843 6.22998L6.16637 6.35779L6.20626 6.47948L7.15651 6.16799ZM6.89773 2.00121L5.89965 2.0632V2.0632L6.89773 2.00121ZM4.83555 1.99981H3.83555H4.83555ZM12.8536 10H13.8536V9H12.8536V10ZM12.8536 14V15H13.8536V14H12.8536ZM11.8536 14H10.8536V15H11.8536V14ZM10.8536 10H11.8536V9H10.8536V10ZM10.8536 14V15H11.8536V14H10.8536ZM9.85364 14H8.85364V15H9.85364V14ZM8.85364 10H9.85364V9H8.85364V10ZM8.85364 14V15H9.85364V14H8.85364ZM7.85364 14H6.85364V15H7.85364V14ZM5.67227 10.4524L4.78566 9.0977L3.11221 10.193L3.99882 11.5476L5.67227 10.4524ZM4.78566 9.0977C3.89807 7.74153 2.04892 7.2611 0.610458 8.00061L1.52489 9.77932C2.05915 9.50466 2.78903 9.69916 3.11221 10.193L4.78566 9.0977ZM1.52489 9.77932L1.75472 9.66117L0.840289 7.88245L0.610459 8.00061L1.52489 9.77932ZM0.840288 7.88245C0.131065 8.24706 -0.17779 9.10522 0.103376 9.83266L1.96888 9.11163C2.01446 9.22955 2.00452 9.3396 1.97402 9.42127C1.9436 9.5027 1.87647 9.59857 1.75472 9.66117L0.840288 7.88245ZM0.103376 9.83266L1.33065 13.0079L3.19615 12.2869L1.96888 9.11163L0.103376 9.83266ZM1.33065 13.0079C1.58336 13.6618 2.17467 14.5096 2.71088 14.9753L4.02235 13.4653C3.73505 13.2158 3.33256 12.6398 3.19615 12.2869L1.33065 13.0079ZM3.36661 14.2203C2.72899 14.9907 2.72893 14.9906 2.72888 14.9906C2.72888 14.9906 2.72884 14.9905 2.72883 14.9905C2.72881 14.9905 2.72883 14.9905 2.72888 14.9906C2.729 14.9907 2.72925 14.9909 2.72966 14.9912C2.73046 14.9919 2.73185 14.993 2.7338 14.9947C2.73769 14.9979 2.74381 15.003 2.75203 15.0099C2.76846 15.0237 2.79322 15.0445 2.82511 15.0716C2.88894 15.1259 2.98107 15.205 3.092 15.3025C3.31488 15.4985 3.60889 15.7648 3.90011 16.051C4.19576 16.3416 4.46766 16.6324 4.65871 16.8795C4.75472 17.0037 4.81303 17.0948 4.84316 17.1524C4.8837 17.23 4.83555 17.1741 4.83555 17.03H6.83555C6.83555 16.6944 6.71025 16.407 6.61577 16.2262C6.51087 16.0255 6.3763 15.8312 6.24085 15.6561C5.96897 15.3045 5.62364 14.9407 5.30205 14.6247C4.97604 14.3042 4.65282 14.0118 4.41277 13.8007C4.29223 13.6947 4.19147 13.6081 4.12029 13.5476C4.08467 13.5174 4.05639 13.4935 4.03665 13.477C4.02678 13.4687 4.01905 13.4623 4.01359 13.4577C4.01087 13.4555 4.00871 13.4537 4.00714 13.4524C4.00636 13.4517 4.00573 13.4512 4.00524 13.4508C4.005 13.4506 4.00479 13.4504 4.00462 13.4503C4.00454 13.4502 4.00444 13.4501 4.0044 13.4501C4.00431 13.45 4.00423 13.45 3.36661 14.2203ZM4.83555 17.03V18H6.83555V17.03H4.83555ZM5.83555 19H9.83555V17H5.83555V19ZM10.73 18.4472L11.73 16.4472L9.94112 15.5528L8.94112 17.5528L10.73 18.4472ZM9.94112 16.4472L10.9411 18.4472L12.73 17.5528L11.73 15.5528L9.94112 16.4472ZM11.8355 19H12.8355V17H11.8355V19ZM13.8355 18V17.03H11.8355V18H13.8355ZM13.8355 17.03C13.8355 17.0658 13.8465 16.9439 13.9921 16.6C14.1161 16.3073 14.2882 15.9649 14.47 15.6279C14.6502 15.2941 14.8315 14.9809 14.9685 14.7503C15.0367 14.6354 15.0934 14.5418 15.1327 14.4775C15.1524 14.4453 15.1677 14.4206 15.1778 14.4041C15.1829 14.3959 15.1867 14.3897 15.1892 14.3858C15.1904 14.3839 15.1913 14.3825 15.1918 14.3816C15.1921 14.3812 15.1922 14.3809 15.1923 14.3808C15.1924 14.3807 15.1924 14.3807 15.1924 14.3807C15.1924 14.3807 15.1924 14.3807 15.1923 14.3807C15.1923 14.3808 15.1923 14.3808 14.3444 13.8507C13.4965 13.3205 13.4964 13.3206 13.4964 13.3207C13.4964 13.3207 13.4963 13.3208 13.4963 13.3209C13.4962 13.321 13.4961 13.3212 13.4959 13.3214C13.4956 13.3219 13.4953 13.3225 13.4948 13.3232C13.4939 13.3247 13.4926 13.3268 13.4909 13.3294C13.4877 13.3347 13.483 13.3422 13.477 13.3518C13.4651 13.3711 13.448 13.3989 13.4264 13.4342C13.3832 13.5049 13.322 13.6059 13.2488 13.7291C13.1029 13.9749 12.907 14.3129 12.7099 14.6782C12.5145 15.0402 12.3094 15.4448 12.1505 15.82C12.0132 16.1441 11.8355 16.6111 11.8355 17.03H13.8355ZM15.2049 14.3602C15.4027 14.0261 15.5593 13.6131 15.6668 13.2258C15.7741 12.839 15.8536 12.4009 15.8536 12.0066H13.8536C13.8536 12.161 13.8175 12.4103 13.7396 12.6912C13.6618 12.9714 13.5639 13.2061 13.4839 13.3412L15.2049 14.3602ZM15.8536 12.0066V7.9718H13.8536V12.0066H15.8536ZM15.8534 7.95156C15.8237 6.48181 14.5879 5.35454 13.1393 5.35454V7.35454C13.5646 7.35454 13.8474 7.67519 13.8538 7.99205L15.8534 7.95156ZM13.1393 5.35454C12.1637 5.35454 11.2909 6.11981 11.2909 7.16341H13.2909C13.2909 7.23171 13.2602 7.28577 13.2293 7.31516C13.1994 7.34373 13.1653 7.35454 13.1393 7.35454V5.35454ZM11.2909 7.16341V7.48657H13.2909V7.16341H11.2909ZM13.2909 7.48657C13.2909 5.99657 12.0383 4.86931 10.5946 4.86931V6.86931C11.0247 6.86931 11.2909 7.18998 11.2909 7.48657H13.2909ZM10.5946 4.86931C9.61906 4.86931 8.74618 5.63458 8.74618 6.67819H10.7462C10.7462 6.74648 10.7155 6.80054 10.6847 6.82993C10.6547 6.8585 10.6206 6.86931 10.5946 6.86931V4.86931ZM8.74618 6.67819V7.00135H10.7462V6.67819H8.74618ZM10.7462 7.00135C10.7462 5.51134 9.49364 4.38408 8.04989 4.38408V6.38408C8.48005 6.38408 8.74618 6.70475 8.74618 7.00135H10.7462ZM8.04989 4.38408C7.07437 4.38408 6.2015 5.14936 6.2015 6.19296H8.2015C8.2015 6.26126 8.17079 6.31532 8.13997 6.3447C8.11 6.37328 8.07593 6.38408 8.04989 6.38408V4.38408ZM6.2015 6.19296V6.51612H8.2015V6.19296H6.2015ZM8.2015 6.51612C8.2015 6.3088 8.18031 6.08088 8.10676 5.85651L6.20626 6.47948C6.19841 6.45553 6.19759 6.44436 6.19853 6.45156C6.19947 6.45874 6.2015 6.4791 6.2015 6.51612H8.2015ZM8.15458 6.10601L7.89581 1.93923L5.89965 2.0632L6.15843 6.22998L8.15458 6.10601ZM7.89581 1.93923C7.82785 0.845035 6.91249 0 5.83555 0V2C5.84436 2 5.86024 2.00346 5.8772 2.01933C5.89327 2.03438 5.89882 2.04976 5.89965 2.0632L7.89581 1.93923ZM5.83555 0C4.7248 0 3.83555 0.897675 3.83555 1.99981H5.83555V2V0ZM3.83555 1.99981V6H5.83555V1.99981H3.83555ZM3.83555 6V11H5.83555V6H3.83555ZM11.8536 11H12.8536V9H11.8536V11ZM11.8536 10V14H13.8536V10H11.8536ZM12.8536 13H11.8536V15H12.8536V13ZM12.8536 14V10H10.8536V14H12.8536ZM9.85364 11H10.8536V9H9.85364V11ZM9.85364 10V14H11.8536V10H9.85364ZM10.8536 13H9.85364V15H10.8536V13ZM10.8536 14V10H8.85364V14H10.8536ZM7.85364 11H8.85364V9H7.85364V11ZM7.85364 10V14H9.85364V10H7.85364ZM8.85364 13H7.85364V15H8.85364V13ZM8.85364 14V10H6.85364V14H8.85364Z" fill="black" fill-opacity="0.8" mask="url(#path-1-outside-1)"/>
</svg>
