<svg width="21" height="21" viewBox="0 0 21 21" fill="none" xmlns="http://www.w3.org/2000/svg">
<path d="M8.75447 2.53134L8.75487 2.53171C8.99577 2.75436 9.31607 3.20936 9.59588 3.65306C9.73046 3.86645 9.84747 4.06385 9.93086 4.20798C9.97249 4.27992 10.0056 4.33829 10.0281 4.37838L10.0536 4.42415L10.0599 4.4356L10.0614 4.43827L10.0617 4.43881L10.0617 4.43882L10.0617 4.43887L10.0618 4.43889L10.5003 5.23943L10.9387 4.43882L10.9388 4.43881L10.9388 4.43877L10.9388 4.43875L10.9391 4.4382L10.9406 4.43551L10.9469 4.42403L10.9725 4.37819C10.995 4.33805 11.0281 4.27962 11.0697 4.20761C11.153 4.06335 11.2699 3.86578 11.4041 3.65221C11.6828 3.20871 12.0013 2.7535 12.2395 2.53038C13.0629 1.76771 14.1441 1.31836 15.4886 1.31836C16.8757 1.31836 18.126 1.8819 19.0312 2.78712C19.9434 3.69922 20.5 4.94933 20.5 6.33022C20.5 7.47179 19.8659 8.78028 18.9107 10.124C17.9661 11.4528 16.769 12.7335 15.752 13.8182C15.3856 14.2067 15.0451 14.5701 14.7333 14.9197L14.7324 14.9208L10.524 19.6675C10.5238 19.6677 10.5236 19.6678 10.5234 19.668C10.5156 19.6765 10.5081 19.6788 10.5028 19.6791C10.4999 19.6793 10.4978 19.6789 10.4963 19.6784C10.4959 19.6782 10.4952 19.678 10.4942 19.6775C10.4931 19.6768 10.4917 19.6758 10.4898 19.6742L10.4631 19.6502L10.4562 19.6456L6.26717 14.9208L6.26719 14.9208L6.26438 14.9176C6.06612 14.6978 5.82514 14.4392 5.56467 14.1596C5.4576 14.0447 5.34724 13.9263 5.2352 13.8056L5.2334 13.8036C4.21602 12.7189 3.02268 11.4438 2.08181 10.1196C1.13093 8.78127 0.5 7.47611 0.5 6.33022C0.5 4.95199 1.06257 3.70086 1.96873 2.78715C2.88255 1.88132 4.13374 1.31836 5.51186 1.31836C6.85606 1.31836 7.92983 1.7675 8.75447 2.53134Z" fill="#C30E0E" stroke="#C30E0E"/>
</svg>
