<svg width="17" height="16" viewBox="0 0 17 16" fill="none" xmlns="http://www.w3.org/2000/svg">
<path fill-rule="evenodd" clip-rule="evenodd" d="M12.3228 6.63867C12.3228 9.7496 9.79133 12.2773 6.6614 12.2773C3.53147 12.2773 1 9.7496 1 6.63867C1 3.52774 3.53147 1 6.6614 1C9.79133 1 12.3228 3.52774 12.3228 6.63867ZM11.0083 11.6693C9.84157 12.6714 8.32249 13.2773 6.6614 13.2773C2.98241 13.2773 0 10.3051 0 6.63867C0 2.97223 2.98241 0 6.6614 0C10.3404 0 13.3228 2.97223 13.3228 6.63867C13.3228 8.29037 12.7175 9.80119 11.716 10.9629L15.9017 15.1292C16.0974 15.324 16.0964 15.6389 15.8995 15.8324C15.7025 16.026 15.3842 16.025 15.1885 15.8302L11.0083 11.6693Z" fill="#ffffff"/>
</svg>
