<svg width="24" height="24" viewBox="0 0 24 24" fill="none" xmlns="http://www.w3.org/2000/svg">
<path d="M23.31 14.547C23.484 13.7655 23.574 12.9555 23.574 12.1245C23.574 5.892 18.45 0.8385 12.1275 0.8385C11.4615 0.8385 10.8075 0.8955 10.17 1.0035C9.147 0.369 7.9365 0 6.639 0C2.9715 0 0 2.9295 0 6.546C0 7.7535 0.333 8.883 0.912 9.8565C0.7605 10.5885 0.6795 11.3475 0.6795 12.1245C0.6795 18.3585 5.805 23.412 12.126 23.412C12.843 23.412 13.5435 23.346 14.223 23.223C15.159 23.718 16.227 24 17.3625 24C21.0285 24 24 21.069 24 17.4555C24 16.41 23.751 15.4245 23.31 14.547ZM17.9985 17.5185C17.469 18.258 16.6875 18.843 15.672 19.257C14.6685 19.6695 13.467 19.8795 12.096 19.8795C10.452 19.8795 9.0735 19.5945 7.9965 19.0305C7.227 18.621 6.594 18.0675 6.1125 17.3805C5.625 16.6905 5.3805 16.005 5.3805 15.342C5.3805 14.9295 5.541 14.571 5.8575 14.2785C6.171 13.986 6.573 13.8405 7.053 13.8405C7.446 13.8405 7.785 13.956 8.061 14.1855C8.3235 14.406 8.55 14.733 8.7315 15.1515C8.934 15.6105 9.1545 15.9975 9.387 16.299C9.6135 16.5945 9.936 16.8405 10.3485 17.034C10.764 17.226 11.3235 17.3265 12.0105 17.3265C12.957 17.3265 13.734 17.127 14.316 16.734C14.8875 16.3515 15.1635 15.8895 15.1635 15.3255C15.1635 14.8815 15.018 14.5305 14.7225 14.256C14.4105 13.968 13.9995 13.7445 13.5015 13.59C12.981 13.431 12.2745 13.257 11.4015 13.077C10.212 12.8265 9.2025 12.5295 8.4015 12.192C7.581 11.847 6.918 11.37 6.435 10.773C5.943 10.1655 5.694 9.405 5.694 8.511C5.694 7.659 5.955 6.891 6.471 6.228C6.9825 5.5695 7.7295 5.055 8.694 4.7055C9.6435 4.359 10.773 4.1835 12.0525 4.1835C13.074 4.1835 13.9725 4.3005 14.724 4.5315C15.4785 4.7625 16.1145 5.0745 16.614 5.46C17.118 5.85 17.493 6.2625 17.727 6.6945C17.964 7.1295 18.0855 7.563 18.0855 7.9815C18.0855 8.385 17.928 8.7525 17.616 9.0705C17.301 9.393 16.905 9.555 16.44 9.555C16.017 9.555 15.684 9.4515 15.4545 9.252C15.24 9.0645 15.0165 8.772 14.7705 8.355C14.4855 7.821 14.139 7.3995 13.743 7.101C13.3575 6.8115 12.7155 6.6675 11.8305 6.6675C11.0115 6.6675 10.3425 6.8295 9.8475 7.1505C9.3705 7.458 9.138 7.812 9.138 8.232C9.138 8.4885 9.213 8.703 9.3675 8.8875C9.5295 9.0855 9.759 9.255 10.05 9.399C10.35 9.5475 10.6605 9.6675 10.971 9.7515C11.289 9.8385 11.8215 9.969 12.555 10.1355C13.482 10.3305 14.3325 10.551 15.0855 10.7895C15.849 11.028 16.506 11.3235 17.046 11.67C17.5935 12.0225 18.027 12.4725 18.336 13.0125C18.645 13.557 18.801 14.2245 18.801 15.0015C18.7995 15.93 18.5295 16.7775 17.9985 17.5185Z" fill="#1CB1E0"/>
</svg>
