<svg width="19" height="20" viewBox="0 0 19 20" fill="none" xmlns="http://www.w3.org/2000/svg">
<path d="M18.2646 7.91881C18.5373 7.5805 18.5617 7.10499 18.3249 6.74067C18.088 6.3762 17.6437 6.20548 17.2236 6.31733L12.8397 7.48942C12.6993 7.52735 12.5505 7.47029 12.4713 7.34814L10.0009 3.54359C9.76398 3.17846 9.31872 3.00758 8.89832 3.12025C8.47792 3.23291 8.17786 3.60344 8.15513 4.03823L7.91771 8.5701C7.91002 8.71514 7.81011 8.8386 7.66982 8.87621L3.28625 10.0509C2.86536 10.1632 2.56482 10.5339 2.54193 10.9689C2.51903 11.4038 2.77903 11.804 3.18569 11.9598L7.42307 13.5843C7.55846 13.6363 7.64496 13.7696 7.63728 13.9145L7.39854 18.4478C7.37091 18.8838 7.63237 19.2863 8.04182 19.4384C8.15939 19.4839 8.28431 19.5073 8.41022 19.5074C8.71158 19.5066 8.99594 19.3688 9.18317 19.1326L12.04 15.6057C12.1317 15.4936 12.2851 15.453 12.4201 15.5052L16.657 17.1314C17.0634 17.2872 17.5237 17.1637 17.7976 16.8257C18.0715 16.4876 18.0965 16.0116 17.8597 15.6465L15.3878 11.839C15.3088 11.7171 15.3173 11.5585 15.4086 11.4457L18.2646 7.91881ZM14.8263 12.2036L17.298 16.0103C17.3772 16.1321 17.3687 16.291 17.2771 16.4037C17.1855 16.5165 17.0316 16.5572 16.8963 16.5048L12.6602 14.8786C12.254 14.721 11.7922 14.8446 11.5193 15.1844L8.66351 18.7111C8.5721 18.8239 8.41856 18.8651 8.283 18.813C8.14761 18.761 8.06095 18.6275 8.06863 18.4827L8.30606 13.9506C8.32993 13.5157 8.06978 13.1152 7.66278 12.96L3.42623 11.3339C3.29067 11.282 3.20401 11.1486 3.21153 11.0036C3.21921 10.8587 3.31945 10.7351 3.45975 10.6976L7.84331 9.52291C8.26436 9.41123 8.56491 9.04021 8.58682 8.60526L8.82392 4.07371C8.82817 3.92753 8.92955 3.80244 9.07165 3.76794C9.10222 3.75993 9.13378 3.75584 9.16534 3.75584C9.27735 3.75453 9.38167 3.81307 9.43907 3.90922L11.9111 7.71524C12.1477 8.0807 12.5931 8.25173 13.0135 8.13842L17.3971 6.96371C17.5379 6.92545 17.687 6.98252 17.7663 7.10499C17.8455 7.2273 17.8363 7.38689 17.7438 7.49956L14.8879 11.0245C14.6134 11.3623 14.5884 11.839 14.8263 12.2036Z" fill="black"/>
<path d="M3.85798 5.08479L5.24134 5.61376C5.51245 5.71923 5.82051 5.63747 6.00381 5.41166C6.18712 5.18584 6.2038 4.86764 6.04502 4.624L5.23757 3.38143L6.16864 2.23158C6.35112 2.00609 6.36764 1.6887 6.20968 1.44539C6.05156 1.20208 5.75494 1.08827 5.47467 1.16332L4.04341 1.54595L3.23645 0.303225C3.07801 0.0608931 2.78188 -0.0520971 2.50226 0.0229572C2.22265 0.0978479 2.02283 0.344104 2.00697 0.633202L1.92963 2.11303L0.497056 2.49648C0.216461 2.5712 0.0161523 2.81844 0.00094525 3.10836C-0.0144253 3.39827 0.158903 3.66513 0.430014 3.76897L1.81353 4.30007L1.73586 5.77957C1.71722 6.07014 1.89153 6.33863 2.16444 6.44001C2.24243 6.46961 2.32534 6.48482 2.4089 6.48449C2.60986 6.484 2.7997 6.39194 2.92463 6.23431L3.85798 5.08479ZM2.40481 5.81473L2.48264 4.33523C2.49834 4.04531 2.32501 3.77829 2.05357 3.67494L0.670547 3.14368L2.10181 2.76023C2.38241 2.68567 2.58255 2.43843 2.5971 2.14851L2.67216 0.664925L2.67445 0.668358L3.48059 1.91109C3.63854 2.15424 3.935 2.26821 4.21527 2.19332L5.64784 1.80954L4.71563 2.96119C4.53233 3.18652 4.51565 3.5044 4.67442 3.74755L5.48138 4.98995L4.09803 4.45917C3.82724 4.35452 3.51967 4.43693 3.33751 4.66308L2.40481 5.81473Z" fill="black"/>
</svg>
