<svg width="30" height="24" viewBox="0 0 30 24" fill="none" xmlns="http://www.w3.org/2000/svg">
<path d="M0.529889 11.5079L7.4425 13.8785L10.1181 21.7848C10.2893 22.2912 10.9632 22.4784 11.4105 22.1423L15.2637 19.2561C15.6676 18.9537 16.2429 18.9386 16.665 19.2202L23.6148 23.8563C24.0933 24.1759 24.7712 23.935 24.8912 23.4037L29.9823 0.902248C30.1133 0.321911 29.4927 -0.162224 28.8913 0.0514974L0.521789 10.1073C-0.178312 10.3554 -0.172212 11.2662 0.529889 11.5079ZM9.6869 12.6166L23.1967 4.97122C23.4395 4.83422 23.6893 5.13588 23.4808 5.31358L12.3313 14.8364C11.9394 15.1716 11.6866 15.6202 11.615 16.1071L11.2352 18.6932C11.1849 19.0385 10.657 19.0728 10.5533 18.7386L9.0926 14.0227C8.9253 13.4848 9.1691 12.9102 9.6869 12.6166Z" fill="#61A6E5"/>
</svg>
