<svg width="16" height="14" viewBox="0 0 16 14" fill="none" xmlns="http://www.w3.org/2000/svg">
<path d="M16 1.62356C15.405 1.8989 14.771 2.08141 14.11 2.17002C14.79 1.74171 15.309 1.06866 15.553 0.257407C14.919 0.656176 14.219 0.937846 13.473 1.09503C12.871 0.418813 12.013 0 11.077 0C9.261 0 7.799 1.55499 7.799 3.46127C7.799 3.73556 7.821 3.9993 7.875 4.25037C5.148 4.11006 2.735 2.73125 1.114 0.630857C0.831 1.14884 0.665 1.74171 0.665 2.37996C0.665 3.57837 1.25 4.6407 2.122 5.25574C1.595 5.24519 1.078 5.08378 0.64 4.82954C0.64 4.84009 0.64 4.8538 0.64 4.86752C0.64 6.5491 1.777 7.94584 3.268 8.2676C3.001 8.34461 2.71 8.38154 2.408 8.38154C2.198 8.38154 1.986 8.36888 1.787 8.32246C2.212 9.69283 3.418 10.7003 4.852 10.733C3.736 11.654 2.319 12.2089 0.785 12.2089C0.516 12.2089 0.258 12.1962 0 12.1614C1.453 13.1499 3.175 13.7143 5.032 13.7143C11.068 13.7143 14.368 8.43956 14.368 3.86743C14.368 3.71446 14.363 3.56677 14.356 3.42013C15.007 2.93275 15.554 2.32404 16 1.62356Z" fill="#000000"/>
</svg>
