<svg width="47" height="36" viewBox="0 0 47 36" fill="none" xmlns="http://www.w3.org/2000/svg">
<path d="M47 4.26185C45.2522 4.98462 43.3898 5.46369 41.4481 5.69631C43.4456 4.572 44.9702 2.80523 45.6869 0.675692C43.8246 1.72246 41.7683 2.46185 39.5769 2.87446C37.8086 1.09939 35.2882 0 32.5387 0C27.2042 0 22.9096 4.08185 22.9096 9.08585C22.9096 9.80585 22.9742 10.4982 23.1328 11.1572C15.1222 10.7889 8.03406 7.16954 3.27237 1.656C2.44106 3.01569 1.95344 4.572 1.95344 6.24739C1.95344 9.39323 3.67188 12.1818 6.23338 13.7963C4.68531 13.7686 3.16663 13.3449 1.88 12.6775C1.88 12.7052 1.88 12.7412 1.88 12.7772C1.88 17.1914 5.21994 20.8578 9.59975 21.7025C8.81544 21.9046 7.96063 22.0015 7.0735 22.0015C6.45662 22.0015 5.83387 21.9683 5.24931 21.8465C6.49775 25.4437 10.0404 28.0883 14.2528 28.1742C10.9745 30.5917 6.81206 32.0483 2.30594 32.0483C1.51575 32.0483 0.757875 32.0151 0 31.9237C4.26819 34.5185 9.32656 36 14.7815 36C32.5122 36 42.206 22.1538 42.206 10.152C42.206 9.75046 42.1913 9.36277 42.1707 8.97785C44.0831 7.69846 45.6899 6.10062 47 4.26185Z" fill="#83C4FF"/>
</svg>
