<svg width="18" height="25" viewBox="0 0 18 25" fill="none" xmlns="http://www.w3.org/2000/svg">
<path fill-rule="evenodd" clip-rule="evenodd" d="M5.61426 4.5865C5.61426 2.60573 7.21999 1 9.20076 1C11.1815 1 12.7873 2.60573 12.7873 4.5865V6.22412H5.61426V4.5865ZM4.61426 7.12412V10.3H5.61426V7.12412H12.7873V10.3H13.7873V7.12412H16.7495C16.8047 7.12412 16.8495 7.16889 16.8495 7.22412V23.6735C16.8495 23.7287 16.8047 23.7735 16.7495 23.7735H1.65234C1.59712 23.7735 1.55234 23.7287 1.55234 23.6735V7.22412C1.55234 7.16889 1.59711 7.12412 1.65234 7.12412H4.61426ZM4.61426 6.22412V4.5865C4.61426 2.05345 6.6677 0 9.20076 0C11.7338 0 13.7873 2.05344 13.7873 4.5865V6.22412H16.7495C17.3018 6.22412 17.7495 6.67184 17.7495 7.22412V23.6735C17.7495 24.2258 17.3018 24.6735 16.7495 24.6735H1.65234C1.10006 24.6735 0.652344 24.2258 0.652344 23.6735V7.22412C0.652344 6.67184 1.10006 6.22412 1.65234 6.22412H4.61426Z" fill="#ffffff"/>
</svg>
