<svg width="24" height="24" viewBox="0 0 24 24" fill="none" xmlns="http://www.w3.org/2000/svg">
<path d="M20.7597 10.071C20.7893 6.68732 17.8298 3.58537 14.1626 3.15642C14.0896 3.14798 14.0102 3.13518 13.9261 3.12159C13.7445 3.09229 13.5568 3.0622 13.3674 3.0622C12.6158 3.0622 12.4149 3.57632 12.3619 3.88298C12.3105 4.1811 12.3596 4.43146 12.5075 4.62745C12.7564 4.95702 13.1944 5.01552 13.5461 5.06244C13.6492 5.07632 13.7465 5.08921 13.828 5.10702C17.1228 5.82397 18.2323 6.95113 18.7745 10.1324C18.7877 10.2101 18.7937 10.3059 18.8 10.4075C18.8237 10.7878 18.873 11.5789 19.7464 11.5789C19.8192 11.5789 19.8974 11.5729 19.9787 11.5608C20.7921 11.4404 20.7666 10.7172 20.7544 10.3697C20.7509 10.2718 20.7477 10.1793 20.7562 10.1177C20.7584 10.1022 20.7596 10.0866 20.7597 10.071Z" fill="#7F40BD"/>
<path d="M13.1541 1.91465C13.2516 1.9215 13.3441 1.92806 13.421 1.93954C18.8315 2.74982 21.3197 5.2461 22.0092 10.556C22.0209 10.6463 22.0227 10.7564 22.0247 10.873C22.0315 11.2878 22.0457 12.1509 22.9975 12.1687L23.027 12.169C23.3255 12.169 23.563 12.0813 23.7328 11.9083C24.0291 11.6065 24.0084 11.1582 23.9917 10.7979C23.9877 10.7095 23.9838 10.6262 23.9847 10.5533C24.0535 5.12263 19.2262 0.198093 13.6544 0.015C13.6313 0.01425 13.6093 0.0154687 13.587 0.0185156C13.5761 0.0200625 13.5558 0.0220312 13.521 0.0220312C13.4655 0.0220312 13.3971 0.0173437 13.3246 0.0125625C13.237 0.00670311 13.1376 0 13.0369 0C12.1496 0 11.9809 0.614155 11.9593 0.980248C11.9096 1.82639 12.7501 1.88592 13.1541 1.91465Z" fill="#7F40BD"/>
<path d="M21.7479 17.4188C21.6329 17.3333 21.5139 17.2447 21.4026 17.1573C20.8119 16.6944 20.1834 16.2677 19.5756 15.855C19.4495 15.7695 19.3233 15.6838 19.1976 15.598C18.4191 15.0654 17.7191 14.8066 17.0579 14.8066C16.1671 14.8066 15.3906 15.2859 14.7497 16.2309C14.4657 16.6498 14.1212 16.8535 13.6967 16.8535C13.4456 16.8535 13.1603 16.7838 12.8489 16.6461C10.3359 15.5364 8.5414 13.8349 7.51529 11.5889C7.01925 10.5034 7.18007 9.79386 8.05306 9.21636C8.54881 8.88871 9.47158 8.27872 9.40621 7.11065C9.33218 5.78418 6.32666 1.79293 5.0603 1.33964C4.52417 1.14765 3.96083 1.14586 3.38296 1.33519C1.92714 1.81177 0.882441 2.64872 0.361514 3.75539C-0.141892 4.82475 -0.119172 6.08034 0.427268 7.38646C2.0069 11.1628 4.22775 14.4553 7.02839 17.1723C9.76973 19.8319 13.1391 22.0105 17.0427 23.6474C17.3946 23.7948 17.7636 23.8753 18.0331 23.9339C18.1249 23.954 18.2042 23.9712 18.262 23.9866C18.2938 23.995 18.3265 23.9996 18.3594 23.9999L18.3903 24C18.3901 24 18.3903 24 18.3903 24C20.2263 24 22.431 22.3662 23.1081 20.5036C23.7012 18.8727 22.6182 18.0665 21.7479 17.4188Z" fill="#7F40BD"/>
<path d="M13.9661 6.22781C13.6518 6.23555 12.9975 6.25135 12.768 6.90019C12.6606 7.20337 12.6735 7.46662 12.8063 7.68262C13.0012 7.99954 13.3745 8.09667 13.7141 8.14997C14.9457 8.34243 15.5783 9.00562 15.7048 10.2369C15.7635 10.8111 16.1606 11.212 16.6703 11.212C16.708 11.212 16.7466 11.2098 16.7849 11.2053C17.398 11.1343 17.6952 10.6956 17.6684 9.90168C17.6782 9.07307 17.2329 8.13239 16.4755 7.38309C15.7154 6.6315 14.7994 6.20822 13.9661 6.22781Z" fill="#7F40BD"/>
</svg>
