<svg width="24" height="24" viewBox="0 0 24 24" fill="none" xmlns="http://www.w3.org/2000/svg">
<path fill-rule="evenodd" clip-rule="evenodd" d="M0 12C0 5.38219 5.38031 0 12.0028 0C18.6197 0 24 5.38312 24 12C24 18.6169 18.6197 24 12.0028 24C9.5625 24 7.29891 23.2744 5.40141 22.0172L0.788906 23.4919L2.28469 19.0331C0.846094 17.0578 0 14.625 0 12ZM18.1898 17.9203C18.5602 17.6428 18.8569 17.3081 18.9853 16.9462C19.275 16.1269 19.275 15.4294 19.1906 15.2812C19.1231 15.1631 18.9633 15.0862 18.7252 14.9709L18.5203 14.8716C18.1678 14.6962 16.4531 13.8488 16.1292 13.7362C15.9666 13.6753 15.8077 13.6566 15.6591 13.6978C15.5175 13.7372 15.3853 13.8319 15.2681 13.9969C14.9306 14.4694 14.5992 14.9494 14.3306 15.2391C14.1192 15.4641 13.7742 15.4922 13.485 15.3722C13.0964 15.2109 12.0103 14.8294 10.6706 13.6369C9.63281 12.7134 8.92781 11.5622 8.72391 11.2172C8.52 10.8647 8.70281 10.6613 8.865 10.4709C9.04172 10.2516 9.21 10.0959 9.38672 9.89156L9.42094 9.85219C9.57703 9.67312 9.67031 9.56531 9.77531 9.34125C9.89531 9.10875 9.81 8.86875 9.72422 8.69156C9.64031 8.51437 8.93531 6.79219 8.64563 6.09469C8.41313 5.53875 8.23641 5.51719 7.88391 5.50219C7.76391 5.49656 7.63031 5.48906 7.48172 5.48906C7.02281 5.48906 6.54422 5.62406 6.255 5.91937L6.22406 5.95125C5.85328 6.32812 5.02781 7.16719 5.02781 8.83969C5.02781 10.5169 6.21844 12.1406 6.43781 12.4397L6.45281 12.4594C6.63 12.6919 8.90063 16.2759 12.4275 17.7366C15.1842 18.8794 16.0031 18.7734 16.6303 18.6394C17.1412 18.5287 17.7239 18.27 18.1898 17.9203Z" fill="#000000"/>
</svg>
