<svg width="44" height="68" viewBox="0 0 44 68" fill="none" xmlns="http://www.w3.org/2000/svg">
<path d="M40.6904 33.802C39.74 32.8536 38.6258 32.0837 37.4132 31.5281C40.7483 28.1031 41.3368 24.3969 39.2809 19.9754C37.5736 16.3076 39.2996 11.2739 39.3167 11.2245C39.4341 10.891 39.3631 10.52 39.1305 10.2536C38.898 9.98713 38.5402 9.8666 38.1936 9.93793C32.8441 11.0399 29.842 13.8007 28.3165 15.7806C28.3451 14.8457 28.554 13.5264 29.1744 11.7301C30.0084 9.31513 29.6558 6.60542 28.1545 3.89374C27.0547 1.90693 25.7247 0.610705 25.6687 0.556395C25.3931 0.289821 24.992 0.161834 24.6353 0.301076C24.2857 0.437438 24.05 0.716314 24.0194 1.08706C23.9387 1.32694 23.1014 3.4259 17.6526 7.01346C17.5097 7.10782 17.3708 7.20361 17.2348 7.2994C16.7918 7.61126 16.6855 8.22306 16.9974 8.66604C17.3092 9.10902 17.9209 9.21515 18.364 8.90343C18.4843 8.81876 18.607 8.73409 18.7324 8.65125C22.5495 6.1381 24.3522 4.23072 25.2035 2.99443C25.5908 3.48623 26.0489 4.13323 26.4627 4.8882C27.6838 7.11527 27.9722 9.2018 27.3204 11.0899C26.5196 13.4086 26.2148 15.3861 26.414 16.9674C26.5743 18.2389 27.0107 18.8322 27.1407 18.9838C27.3622 19.2421 27.7028 19.3654 28.0387 19.3121C28.3749 19.2591 28.6604 19.0336 28.7917 18.7197C28.8756 18.5195 30.7768 14.1348 37.0045 12.2591C36.5522 14.2996 36.1165 17.8248 37.5025 20.8027C39.3374 24.7487 38.6917 27.7667 35.3321 30.8112C35.0899 30.7536 34.8458 30.7039 34.6003 30.6624C35.6192 26.191 32.9778 21.2847 32.8548 21.0597C32.6466 20.6795 32.2141 20.4813 31.7901 20.5713C31.3664 20.6616 31.0519 21.0193 31.0168 21.4511C30.8969 22.9269 30.3728 24.0381 29.4148 24.8479C28.2767 25.8098 26.7474 26.1382 25.6411 26.2429C26.6927 21.7773 22.7296 13.5428 21.8527 12.2981C21.3607 11.6001 20.8195 11.6633 20.5405 11.7631C20.2053 11.883 19.8296 12.2367 19.8738 12.838C19.8831 12.9642 19.9033 13.1071 19.9266 13.2725C20.1032 14.5249 20.4707 17.1307 17.6227 19.5155C14.808 21.8715 14.7025 24.9734 14.9449 26.7791C13.863 26.3038 12.3045 25.1477 11.1342 24.006C10.8727 23.7506 10.491 23.6617 10.1439 23.7753C9.79661 23.8888 9.54116 24.1861 9.48109 24.5465C9.22289 26.0971 9.76429 27.9109 11.0898 29.9373C11.2276 30.1481 11.3666 30.3485 11.5038 30.5395C10.4402 30.5506 9.38216 30.7111 8.35826 31.0195C7.80692 30.1573 6.84623 28.3918 6.4467 26.0458C5.82325 22.386 6.78839 18.8284 9.3162 15.45C9.92538 16.8539 11.0769 18.701 13.1079 19.5442C13.4509 19.6865 13.8444 19.6214 14.1253 19.3783C14.4061 19.1355 14.5252 18.7529 14.4336 18.3932C14.3933 18.2346 13.4764 14.4685 16.1283 11.0267C16.4589 10.5976 16.3792 9.98164 15.9501 9.65107C15.5208 9.3205 14.905 9.4002 14.5744 9.82944C12.7126 12.2459 12.2967 14.7974 12.2913 16.5753C11.0621 15.1825 10.6451 13.2799 10.6402 13.2558C10.5649 12.8921 10.291 12.602 9.93206 12.5064C9.57322 12.4108 9.19122 12.5262 8.94507 12.8043C4.27105 18.0871 3.95501 23.1 4.51276 26.3751C4.92433 28.7914 5.84629 30.6616 6.50768 31.7595C5.45133 32.294 4.48999 32.9901 3.63949 33.8384C1.50467 35.9676 0.329102 38.7974 0.329102 41.8067C0.329102 44.8158 1.5048 47.6458 3.63975 49.7753L20.4728 66.5566C20.9349 67.0175 21.5416 67.2479 22.1484 67.2477C22.7551 67.2477 23.3618 67.0173 23.8236 66.5566L27.9484 62.4436C28.332 62.0611 28.3328 61.4402 27.9504 61.0566C27.5678 60.6729 26.9467 60.6721 26.5633 61.0546L22.4384 65.1677C22.2785 65.3273 22.0183 65.3271 21.858 65.1675L5.02432 48.3863C3.26129 46.6277 2.29026 44.2911 2.29026 41.8068C2.29026 39.3226 3.26129 36.986 5.02445 35.2274C5.96852 34.2857 7.07682 33.5705 8.31848 33.102C9.99226 32.4712 11.8054 32.3329 13.5623 32.7021C15.3321 33.073 16.9466 33.9462 18.2316 35.2277L20.4714 37.4596C21.3953 38.3813 22.8987 38.3812 23.8223 37.4597L26.0979 35.1906C27.8607 33.4323 30.206 32.4639 32.7013 32.4639C32.9026 32.4639 33.0993 32.4702 33.2904 32.483C33.977 32.5258 34.6586 32.644 35.3166 32.8347C36.8152 33.268 38.1943 34.0826 39.305 35.1908C41.0677 36.9484 42.0386 39.285 42.0386 41.7701C42.0386 44.2551 41.0677 46.5917 39.305 48.3494L29.108 58.5161C28.7244 58.8986 28.7236 59.5196 29.1059 59.9033C29.4886 60.287 30.1096 60.2876 30.493 59.9054L40.6899 49.7386C42.8245 47.6102 44.0002 44.7804 44.0002 41.7702C44.0003 38.76 42.8247 35.9302 40.6904 33.802ZM32.6151 30.5046C29.6287 30.5268 26.8254 31.6947 24.7127 33.8018L22.4371 36.071C22.2772 36.2305 22.017 36.2305 21.8566 36.0706L19.6167 33.8384C18.1367 32.3624 16.2937 31.3349 14.2718 30.8522C13.575 30.0973 12.4194 28.6328 11.8008 27.1404C11.8754 27.1964 11.9511 27.2523 12.0277 27.308C13.8959 28.6666 15.3442 29.1796 16.4559 28.8761C16.7169 28.8048 16.9364 28.627 17.0633 28.3881C17.1902 28.149 17.212 27.8665 17.1249 27.6102C17.0694 27.4476 15.8034 23.5964 18.8819 21.0197C20.6398 19.5478 21.4434 17.9615 21.7828 16.5584C22.156 17.4517 22.5444 18.4755 22.8886 19.5534C24.0064 23.0532 24.1789 25.6318 23.3619 26.6281C23.1315 26.9089 23.0753 27.294 23.2156 27.6291C23.3559 27.9641 23.67 28.1941 24.0316 28.227C24.1944 28.2418 28.0464 28.5636 30.6704 26.3557C31.2946 25.8304 31.7955 25.2114 32.1707 24.5028C32.2375 24.708 32.3028 24.9222 32.3653 25.1439C32.7767 26.6044 33.1219 28.6535 32.6151 30.5046Z" fill="#DDD6C5"/>
</svg>
