<svg width="58" height="47" viewBox="0 0 58 47" fill="none" xmlns="http://www.w3.org/2000/svg">
<path d="M57.9808 45.4151L52.123 18.6076C52.0379 18.2182 51.693 17.9406 51.2945 17.9406H44.7151L45.5442 17.1114C49.4518 13.2037 49.4518 6.84546 45.5442 2.93803C45.2501 2.64384 44.9352 2.36557 44.6085 2.11101C44.239 1.82303 43.7061 1.88932 43.4183 2.25873C43.1304 2.62814 43.1966 3.16108 43.566 3.44895C43.8377 3.6607 44.0999 3.89233 44.3448 4.1374C47.591 7.38371 47.591 12.666 44.3448 15.9123L29.3482 30.9114C29.1971 31.0625 28.9514 31.0626 28.8 30.9114L13.8332 15.9444C12.2607 14.3718 11.3946 12.2809 11.3946 10.057C11.3946 7.83307 12.2605 5.74209 13.8333 4.16959C15.4059 2.59708 17.4968 1.73088 19.7207 1.73088C21.9446 1.73088 24.0356 2.59686 25.6081 4.16959L27.5994 6.16096C27.9929 6.55454 28.5162 6.77137 29.0729 6.77137C29.6296 6.77137 30.1529 6.55465 30.5464 6.16096L32.5701 4.13729C34.7511 1.95629 37.9406 1.16101 40.8939 2.0611C41.3418 2.19752 41.8159 1.94523 41.9524 1.49721C42.089 1.0492 41.8367 0.575328 41.3885 0.438678C37.8343 -0.64493 33.9961 0.312756 31.371 2.93792L29.3472 4.9616C29.2484 5.06041 29.1331 5.0751 29.0731 5.0751C29.0132 5.0751 28.8979 5.06041 28.799 4.9616L26.8077 2.97022C22.8999 -0.937543 16.5418 -0.937543 12.6341 2.97022C8.72637 6.87787 8.72637 13.2361 12.6341 17.1436L13.431 17.9405H6.88361C6.48507 17.9405 6.14017 18.2181 6.05513 18.6075L0.197319 45.4151C0.142433 45.6659 0.204321 45.9281 0.365253 46.128C0.526185 46.328 0.768994 46.4442 1.02581 46.4442H57.1523C57.4091 46.4442 57.6518 46.328 57.8128 46.128C57.9739 45.9281 58.0355 45.6659 57.9808 45.4151ZM56.0989 44.7481H50.6614C50.7375 42.0987 52.3878 39.8043 54.8158 38.876L56.0989 44.7481ZM43.0195 19.6365H50.6119V19.6367L52.4759 28.167H48.4556C46.6098 26.1232 43.3905 24.463 39.2494 23.4073L43.0195 19.6365ZM27.6007 32.1107C28.0069 32.5167 28.5405 32.7199 29.0741 32.7199C29.6078 32.7199 30.1414 32.5169 30.5476 32.1105L34.4301 28.2275C37.8989 29.0478 40.1983 30.6155 40.1983 32.1924C40.1983 33.267 39.1036 34.378 37.1948 35.2406C35.0439 36.2128 32.165 36.7481 29.0889 36.7481C22.5421 36.7481 17.9797 34.3472 17.9797 32.1924C17.9797 30.6201 20.2692 29.0552 23.7234 28.2334L27.6007 32.1107ZM15.1269 19.6367L18.9045 23.4143C18.1678 23.6033 17.4551 23.8125 16.7728 24.0413L12.3682 19.6367H15.1269ZM7.56642 19.6367H9.96944L15.9489 25.6161C16.1107 25.7779 16.3274 25.8646 16.5487 25.8646C16.6443 25.8646 16.7408 25.8484 16.8339 25.815C17.9116 25.4298 19.0794 25.0963 20.311 24.8207L22.3372 26.8469C18.5664 27.9551 16.2837 29.9368 16.2837 32.1922C16.2837 33.9886 17.7046 35.6198 20.2848 36.7859C22.6506 37.855 25.7774 38.4439 29.0892 38.4439C32.401 38.4439 35.5277 37.855 37.8935 36.7859C40.4737 35.6198 41.8946 33.9884 41.8946 32.1922C41.8946 29.931 39.6029 27.9466 35.8174 26.8399L37.8423 24.8146C42.27 25.8018 45.7425 27.5175 47.4115 29.5527C47.5726 29.7491 47.8132 29.8629 48.0672 29.8629H52.8464L53.837 34.396H48.1633C47.8764 34.396 47.61 34.5409 47.4538 34.7794C46.6648 35.7627 45.4649 36.6714 43.8864 37.4807C43.4696 37.6943 43.305 38.2055 43.5187 38.6222C43.6689 38.9152 43.966 39.0836 44.274 39.0836C44.4042 39.0836 44.5365 39.0535 44.6602 38.9899C46.3234 38.1372 47.6355 37.1636 48.5669 36.092H54.2076L54.4508 37.2047C51.24 38.3179 49.0439 41.2979 48.9653 44.7477H33.1556L33.1625 42.0017C36.1346 41.7315 38.9764 41.1597 41.4249 40.3364C41.8688 40.1871 42.1077 39.7063 41.9585 39.2623C41.8092 38.8183 41.3283 38.5794 40.8844 38.7287C38.3543 39.5793 35.3705 40.1482 32.2552 40.3739C31.8126 40.406 31.4695 40.7738 31.4684 41.2176L31.4594 44.7475H27.2562L27.265 41.2586C27.2662 40.809 26.9163 40.4366 26.4674 40.4099C17.0673 39.8494 9.70382 36.2397 9.70382 32.1918C9.70382 31.1797 10.1618 30.1772 11.065 29.2123C11.3776 28.8782 11.3689 28.3566 11.0456 28.0331L6.68428 23.6719L7.56642 19.6367ZM6.25434 25.6411L9.29353 28.6802C8.43985 29.7904 8.00788 30.9687 8.00788 32.1925C8.00788 37.1724 15.3437 41.2587 25.567 42.0489L25.5601 44.7481H9.88813L10.7198 40.5388C10.7689 40.2898 10.7041 40.0321 10.5429 39.8359C10.3819 39.64 10.1414 39.5264 9.88779 39.5264H3.22024L6.25434 25.6411ZM2.84959 41.2226H8.85568L8.1591 44.7481H2.07926L2.84959 41.2226Z" fill="#000000"/>
</svg>
