<svg width="60" height="50" viewBox="0 0 60 50" fill="none" xmlns="http://www.w3.org/2000/svg">
<path d="M58.1798 35.0266C58.7092 35.0266 59.1381 34.5975 59.1381 34.0683V23.4205C59.1381 21.1503 57.2918 19.3034 55.0223 19.3034H52.9102V16.9459C52.9102 9.97274 47.2371 4.29943 40.2637 4.29943C39.765 4.29943 39.2963 4.43101 38.8907 4.66144C37.9091 2.31621 35.5905 0.664062 32.8932 0.664062H31.0085C28.3157 0.664062 25.9704 2.18143 24.7827 4.40633C24.6198 4.18702 24.4396 3.97808 24.2428 3.78153C23.1908 2.7295 21.7925 2.1501 20.3056 2.1501H19.2936C15.9606 2.1501 13.119 4.29342 12.0739 7.27368C11.6529 7.04107 11.1772 6.91754 10.6824 6.91754H8.845C3.96784 6.91754 0 10.8854 0 15.7625V33.2289C0 33.4648 0.0129153 33.7057 0.037851 33.9479C0.0382346 33.9514 0.0383625 33.955 0.0387461 33.9584C0.0387461 33.9591 0.0388739 33.9597 0.0388739 33.9605C0.410224 37.3962 3.29841 39.9872 6.75718 39.9872H6.80578C9.106 39.9872 11.1528 38.8404 12.376 37.0605C13.3559 38.8051 15.2235 39.9872 17.363 39.9872H20.1563C22.1091 39.9872 23.8361 39.0034 24.8679 37.505C25.168 38.0633 25.5404 38.586 25.9781 39.0636V41.7901C25.9781 42.6565 26.1216 43.5072 26.4046 44.3185C26.9739 45.9529 28.0971 47.3636 29.5673 48.2907C30.7667 49.0473 32.151 49.4546 33.5721 49.4696C33.5775 49.4698 33.583 49.4697 33.5882 49.4698C33.5919 49.4698 33.5954 49.4703 33.599 49.4703C33.6008 49.4703 33.6025 49.4701 33.6045 49.4701C33.6225 49.4705 33.6404 49.471 33.6591 49.471H48.7295C54.4691 49.471 59.1386 44.8015 59.1386 39.0619V37.9146C59.1386 37.3853 58.7096 36.9563 58.1803 36.9563C57.6509 36.9563 57.222 37.3855 57.222 37.9146V39.0619C57.222 43.7446 53.4125 47.5542 48.7297 47.5542H48.4625V41.5121C51.1495 40.344 52.9107 37.696 52.9107 34.7161V21.22H55.0229C56.2354 21.22 57.222 22.2071 57.222 23.4204V34.0681C57.2215 34.5974 57.6506 35.0266 58.1798 35.0266ZM6.80578 38.0704H6.75718C4.65018 38.0704 2.83973 36.7285 2.18142 34.8158H11.3813C10.7221 36.7292 8.91188 38.0704 6.80578 38.0704ZM11.6461 32.8991H1.91685V32.0443H4.45709C4.98637 32.0443 5.41539 31.6151 5.41539 31.086C5.41539 30.5568 4.98637 30.1277 4.45709 30.1277H1.91685V29.2997H11.6461V32.8991ZM28.4134 30.1275H25.8731V29.2995H37.4744V32.8991H25.8731V32.0443H28.4134C28.9426 32.0443 29.3717 31.6151 29.3717 31.086C29.3717 30.5568 28.9426 30.1275 28.4134 30.1275ZM31.972 25.8853H37.4744V27.3828H25.8731V22.5131H37.4744V23.9686H31.972C31.4426 23.9686 31.0137 24.3976 31.0137 24.9269C31.0136 25.4561 31.4426 25.8853 31.972 25.8853ZM32.6405 47.4604C31.9146 47.3308 31.2178 47.0656 30.5898 46.6695C29.4851 45.9731 28.6415 44.9141 28.2143 43.6877C28.0021 43.0795 27.8947 42.441 27.8947 41.7901V40.5877C29.0437 41.2338 30.3503 41.5754 31.6744 41.5754C31.9989 41.5754 32.3214 41.5541 32.6405 41.5141V47.4604ZM33.3253 39.42C32.7932 39.5784 32.2376 39.6587 31.6743 39.6587C30.6747 39.6587 29.6889 39.4003 28.8229 38.9108C28.3829 38.6626 27.9741 38.3544 27.608 37.9949C26.7208 37.1231 26.1511 36.0182 25.9529 34.8157H37.3947C37.1988 36.0006 36.6418 37.0929 35.7753 37.9593C35.0932 38.6425 34.2465 39.1473 33.3253 39.42ZM39.5929 47.5542H34.557V41.0141C35.1134 40.7895 35.6427 40.5008 36.1326 40.1535V42.8482C36.1326 43.3775 36.5615 43.8065 37.0909 43.8065C37.6203 43.8065 38.0492 43.3773 38.0492 42.8482V38.6117C38.4112 39.3872 38.9348 40.0856 39.5927 40.6532V40.7219V47.5542H39.5929ZM46.5453 47.5542H41.5096V41.7752C42.0146 41.9564 42.5429 42.0704 43.0851 42.1126V43.3197C43.0851 43.8489 43.514 44.278 44.0434 44.278C44.5728 44.278 45.0017 43.8489 45.0017 43.3197V42.1313H45.4948C45.8479 42.1313 46.1984 42.1051 46.5452 42.0556V47.5542H46.5453ZM50.9936 34.7162H50.9934C50.9934 37.1024 49.4715 39.2027 47.2055 39.9427C46.6544 40.1232 46.0789 40.2146 45.4949 40.2146H43.5667C42.6785 40.2146 41.8306 39.9395 41.1143 39.4187C40.0352 38.6349 39.3909 37.3718 39.3909 36.0401V16.2212C39.3909 15.692 38.9621 15.2629 38.4326 15.2629C37.9032 15.2629 37.4744 15.6921 37.4744 16.2212V20.5965H32.4648C32.4798 20.5682 32.4955 20.5405 32.5078 20.5104L34.5281 15.5666C34.7284 15.0767 34.4935 14.5172 34.0036 14.3169C33.5137 14.1167 32.9542 14.3517 32.754 14.8416L31.6448 17.5556L30.6003 14.8581C30.4091 14.3646 29.8539 14.1191 29.3605 14.3104C28.8669 14.5016 28.6217 15.0565 28.8128 15.5501L30.7269 20.4939C30.7407 20.5297 30.7582 20.5632 30.7759 20.5964H25.8731V18.9532C25.8731 18.4239 25.444 17.9949 24.9148 17.9949C24.3857 17.9949 23.9565 18.424 23.9565 18.9532V34.2702C23.9565 36.3657 22.2518 38.0704 20.1563 38.0704H17.363C15.2675 38.0704 13.5628 36.3657 13.5628 34.2702V20.2617C13.5628 19.7324 13.1337 19.3034 12.6045 19.3034C12.0754 19.3034 11.6462 19.7326 11.6462 20.2617V27.383H1.91698V15.7625C1.91698 11.9423 5.02498 8.83427 8.84526 8.83427H10.6827C10.941 8.83427 11.1831 8.93426 11.3647 9.11585C11.5461 9.2973 11.6461 9.5395 11.6461 9.79768C11.6461 10.327 12.0753 10.756 12.6044 10.756C13.1336 10.756 13.5627 10.327 13.5627 9.79768C13.5627 6.63763 16.1336 4.06669 19.2937 4.06669H20.3057C21.2807 4.06669 22.1977 4.44674 22.8877 5.13675C23.5769 5.82587 23.9564 6.74248 23.9564 7.71753C23.9564 8.24681 24.3856 8.67583 24.9147 8.67583C25.4438 8.67583 25.873 8.24668 25.873 7.71753C25.873 4.88497 28.1768 2.58078 31.0083 2.58078H32.8931C35.4191 2.58078 37.4741 4.63574 37.4741 7.16166C37.4741 7.69093 37.903 8.11996 38.4324 8.11996C38.9618 8.11996 39.3907 7.69081 39.3907 7.16166V7.08877C39.3907 6.60757 39.7822 6.21602 40.2634 6.21602C46.1798 6.21602 50.9932 11.0292 50.9932 16.9458V34.7162H50.9936Z" fill="#DDD6C5"/>
</svg>
