<svg width="67" height="50" viewBox="0 0 67 50" fill="none" xmlns="http://www.w3.org/2000/svg">
<path d="M55.6308 16.895C55.6331 16.734 55.6331 16.5742 55.6292 16.416C55.5581 13.4823 54.4195 11.0669 52.2452 9.23627C47.676 4.69453 40.2639 4.69997 35.7015 9.25619L33.3291 11.6254C33.1436 11.8109 32.842 11.8105 32.6567 11.625L30.3253 9.29047C29.3814 8.34546 28.31 7.58337 27.1289 7.01456C27.1616 6.87704 27.1788 6.73513 27.1781 6.59128C27.1751 6.02621 26.9012 5.49142 26.4477 5.16219L24.007 3.37941L22.2243 0.938821C21.8831 0.471427 21.3577 0.203125 20.7833 0.203125C20.2088 0.203125 19.6836 0.471297 19.3422 0.938821L17.5596 3.37941L15.1131 5.16658C14.6566 5.50526 14.3857 6.04704 14.3887 6.6156C14.3917 7.18066 14.6655 7.71545 15.1191 8.04456L15.1633 8.0769C14.6637 8.43925 14.1906 8.84028 13.7503 9.28012C12.8257 10.2047 12.1053 11.2337 11.5869 12.3589C11.5846 12.3633 11.5819 12.3671 11.5796 12.3715C11.5719 12.3863 11.5661 12.4016 11.5592 12.4166C10.9441 13.774 10.6245 15.2722 10.6043 16.9011C3.75804 18.9631 0 21.8725 0 25.1312C0 27.6873 2.29661 29.6086 4.48947 30.8603C4.47394 30.9396 4.45984 31.0193 4.44924 31.1002C4.31379 32.1236 4.58494 33.1386 5.21287 33.958C5.84081 34.7775 6.75011 35.3034 7.77365 35.4388C7.94596 35.4616 8.11776 35.4729 8.28878 35.4729C9.13314 35.4729 9.94995 35.1975 10.6316 34.6752C11.0102 34.385 11.3252 34.0343 11.5689 33.6405C13.7099 34.236 16.0765 34.7387 18.622 35.1384C19.4093 36.1832 20.2527 37.2491 21.1549 38.3368C26.0314 44.2168 30.9338 48.6558 31.2832 48.9701C31.7524 49.4285 32.3633 49.6579 32.9743 49.6578C33.5869 49.6578 34.1996 49.4271 34.6694 48.9661C34.9727 48.6851 40.1372 43.8727 45.1951 37.6597C45.8702 36.8305 46.5121 36.0154 47.1222 35.2142C52.5373 34.397 57.1474 33.1223 60.4737 31.5201C63.1017 30.2541 66.2347 28.1181 66.2347 25.1309C66.2347 21.8664 62.4767 18.9553 55.6308 16.895ZM57.0141 22.8433C57.0141 24.0796 55.4169 25.4441 52.7149 26.5987C53.8753 24.3633 54.6906 22.2826 55.1589 20.3623C56.1528 21.0293 57.0141 21.8841 57.0141 22.8433ZM18.7258 4.93593C18.7335 4.93036 18.7413 4.92454 18.7488 4.91859C18.8473 4.84227 18.9919 4.72041 19.1201 4.54007L20.7832 2.26313L22.4508 4.54615C22.4565 4.55417 22.4625 4.56193 22.4686 4.5697C22.545 4.66801 22.6669 4.81238 22.8468 4.94046L25.1239 6.6037L22.8407 8.27133C22.833 8.2769 22.8252 8.28272 22.8177 8.28867C22.7194 8.36499 22.5749 8.48673 22.4466 8.66693L20.7832 10.9441L19.1156 8.66111C19.1099 8.65335 19.104 8.64559 19.0981 8.63808C19.0218 8.53977 18.8999 8.39514 18.7196 8.26681L16.4426 6.60356L18.7258 4.93593ZM10.9829 20.4311C11.3854 22.306 12.1077 24.3118 13.1477 26.4436C10.6506 25.3257 9.22059 24.0396 9.22059 22.8433C9.22059 21.917 10.0324 21.0863 10.9829 20.4311ZM10.185 31.859C10.1176 32.3678 9.85629 32.8197 9.44905 33.1317C9.04194 33.4437 8.53793 33.5785 8.02901 33.5111C7.52048 33.4437 7.06848 33.1824 6.75645 32.7752C6.44443 32.3679 6.30976 31.8637 6.37703 31.355C6.44443 30.8465 6.70561 30.3946 7.11298 30.0826C7.45166 29.8231 7.8576 29.6862 8.27713 29.6862C8.362 29.6862 8.44751 29.6918 8.53314 29.703C9.04168 29.7704 9.49355 30.0316 9.80557 30.439C10.1176 30.8461 10.2523 31.3505 10.185 31.859ZM12.1414 31.7815C12.1839 30.8729 11.9085 29.987 11.3488 29.2565C10.7208 28.4369 9.81153 27.9111 8.78799 27.7756C7.76511 27.6406 6.74973 27.9113 5.9302 28.5393C5.70989 28.7082 5.51145 28.898 5.33538 29.1043C3.14123 27.8314 1.94448 26.4371 1.94448 25.1312C1.94448 23.1559 4.55557 21.1082 9.0638 19.4602C7.87636 20.4912 7.27611 21.6233 7.27611 22.8433C7.27611 24.5713 8.55384 27.0392 14.5553 29.0745C15.2708 30.3079 16.0832 31.5793 16.9915 32.8872C15.2684 32.5681 13.6459 32.1983 12.1414 31.7815ZM33.3387 47.5485L33.3105 47.5755C33.125 47.7608 32.8233 47.7606 32.638 47.5751L32.5974 47.5367C32.5477 47.4923 27.5782 43.039 22.6353 37.0756C19.7579 33.604 16.5113 29.1544 14.4969 24.7163C19.4397 26.5619 26.0904 27.6362 32.8427 27.6362C35.6736 27.6362 38.4593 27.4555 41.1225 27.0992C41.6546 27.028 42.0284 26.5388 41.9572 26.0067C41.886 25.4746 41.3974 25.1001 40.8647 25.172C38.2866 25.5169 35.5878 25.6918 32.8428 25.6918C25.4908 25.6918 18.3031 24.3913 13.4963 22.2031C13.1251 21.1077 12.8489 20.0244 12.6929 18.9689C14.8046 19.9531 17.3858 20.7931 20.2725 21.4276C21.5505 21.7084 22.8944 21.9479 24.2669 22.1388C24.3124 22.1452 24.3574 22.1483 24.402 22.1483C24.8797 22.1483 25.2961 21.7963 25.3637 21.31C25.4377 20.7782 25.0666 20.287 24.5349 20.2131C23.2123 20.029 21.9188 19.7986 20.6898 19.5285C17.4728 18.8213 14.676 17.8579 12.5535 16.73C12.5799 15.8097 12.7171 14.9507 12.9694 14.1494C16.1601 15.6154 20.2175 16.6965 24.7927 17.2897C24.8353 17.2952 24.8772 17.2979 24.919 17.2979C25.4003 17.2979 25.8183 16.9406 25.8818 16.4505C25.9509 15.9181 25.5752 15.4304 25.0428 15.3614C20.7184 14.8008 16.7644 13.7493 13.77 12.3765C14.1379 11.766 14.5877 11.1928 15.1247 10.6558C15.6438 10.1373 16.2161 9.6818 16.8305 9.29474L17.5598 9.82733L19.3467 12.2737C19.6836 12.7278 20.2212 12.9982 20.7863 12.9982C20.7894 12.9982 20.7925 12.9982 20.7956 12.9982C21.3607 12.9952 21.8955 12.7213 22.2246 12.2678L24.0072 9.8272L25.772 8.53821C26.9604 9.02837 28.0279 9.74156 28.9496 10.6647L31.281 12.9992C31.7377 13.4565 32.3453 13.7087 32.9916 13.7092C32.9922 13.7092 32.9928 13.7092 32.9933 13.7092C33.6389 13.7092 34.2463 13.4579 34.7032 13.0015L37.0756 10.6322C40.8897 6.82349 47.0915 6.8275 50.9004 10.6414L50.9652 10.7007C52.7373 12.1803 53.627 14.0651 53.6854 16.4626C53.6939 16.8133 53.684 17.1701 53.6578 17.5322C53.6571 17.5412 53.6565 17.5503 53.656 17.5592C53.6298 17.9113 53.5872 18.2684 53.5302 18.6301C53.5211 18.6716 53.514 18.713 53.5105 18.7548C53.3439 19.7535 53.0652 20.7857 52.6938 21.839C51.4159 22.5058 49.9968 23.0635 48.1492 23.6274C47.6357 23.7841 47.3464 24.3274 47.5032 24.841C47.631 25.26 48.0162 25.5297 48.4328 25.5297C48.5268 25.5297 48.6223 25.516 48.7168 25.487C49.7927 25.1587 50.7356 24.8305 51.5964 24.4819C51.0699 25.5953 50.4625 26.7199 49.796 27.8424C49.7627 27.8887 49.7336 27.9376 49.709 27.9888C43.8268 37.8156 33.4852 47.4136 33.3387 47.5485ZM48.7715 32.9712C49.6847 31.6814 50.5069 30.4312 51.2388 29.2213C56.2905 27.5849 58.9584 25.3838 58.9584 22.8435C58.9584 21.6196 58.3578 20.485 57.1692 19.453C61.6787 21.1007 64.2902 23.1503 64.2902 25.1312C64.2902 28.1887 58.0192 31.3077 48.7715 32.9712Z" fill="#DDD6C5"/>
</svg>
